<svg xmlns="http://www.w3.org/2000/svg" viewBox="0 0 82.65 95.7"><defs><style>.cls-1{fill:#fff;}</style></defs><title>1000Asset 1</title><g id="Layer_2" data-name="Layer 2"><g id="Layer_1-2" data-name="Layer 1"><path id="Path_1524" data-name="Path 1524" class="cls-1" d="M3.79,95.7C1.1,94.52-.3,92.56.05,89.37H81.9c.43,3.36-.38,4.72-3.67,6.33Z"/><path id="Path_1525" data-name="Path 1525" class="cls-1" d="M47.6,0l2.53,1L48.9,5.55l-3.1-.86L47.18,0Z"/><path id="Path_1526" data-name="Path 1526" class="cls-1" d="M46.72,54.31c3.5-1.77,6.22-4.63,10.37-4.58,4.39.06,8.78,0,13.33,0v36H11.69V49.87h5.53c0,.22,0,.4,0,.59-.1,3,.63,6.08-1.81,8.66-.48.51-.24,2,0,2.86,1.75,5.49,7.3,7,11.57,3.15,3.11,2.4,6.29,2.38,9.48-.13L49.59,76.2c2.33,2,3.72,2,5.86-.14,1.21-1.19,2.42-2.39,3.6-3.61,2-2,2-3.68,0-5.67C55.44,63.15,51.82,59.56,48.22,56,47.79,55.51,47.39,55,46.72,54.31Z"/><path id="Path_1527" data-name="Path 1527" class="cls-1" d="M69.07,38.16,46.93,50.23c-4.2-4.26-8.38-8.48-12.5-12.76a1.78,1.78,0,0,1-.12-1.62C38.12,28.75,42,21.68,45.79,14.7Z"/><path id="Path_1528" data-name="Path 1528" class="cls-1" d="M31.6,39.66,44.12,52.1c-3.5,3.6-6.93,7.33-10.64,10.75-.7.64-3,.56-3.79-.1a116.62,116.62,0,0,1-8.61-8.47A2.89,2.89,0,0,1,21,50.2l.16-.15C24.6,46.51,28.15,43.08,31.6,39.66Z"/><path id="Path_1529" data-name="Path 1529" class="cls-1" d="M8.17,85.78h-3V43.39H22.75c-1.38,2.1-2.88,3.37-5.44,3.07a49.06,49.06,0,0,0-5.94-.05c-2.85,0-3.2.35-3.21,3.15q0,15.09,0,30.16Z"/><path id="Path_1530" data-name="Path 1530" class="cls-1" d="M77,85.74H73.93V49.43c0-2.72-.31-3-3.08-3H61.59c3.75-3.24,8.4-4.09,15.4-2.89Z"/><path id="Path_1531" data-name="Path 1531" class="cls-1" d="M53.73,66.29l3.05,3.3L52.07,74l-13-11.12,5.81-5.54,1.75,1.83-2.14,2.4,2.45,2,2.19-2,2.16,2.16L49,66.3l2.56,1.92Z"/><path id="Path_1532" data-name="Path 1532" class="cls-1" d="M24.24,63.05c-1.8,1.84-2,1.82-4.56-.8-1.63-1.69-1.6-2.23.34-4Z"/><path id="Path_1533" data-name="Path 1533" class="cls-1" d="M74.11,26.45l-1.59-2.78,4.18-2.44L78.32,24Z"/><path id="Path_1534" data-name="Path 1534" class="cls-1" d="M61.48,6,59.07,10.2,56.3,8.64l2.39-4.23Z"/><path id="Path_1535" data-name="Path 1535" class="cls-1" d="M78,36.89c-.28-1.09-.51-2-.77-3.07l4.61-1.25.82,3Z"/><path id="Path_1536" data-name="Path 1536" class="cls-1" d="M67.38,17.17l-1.69-2,3.4-3.27,2,1.87Z"/></g></g></svg>